<svg width="28" height="28" viewBox="0 0 28 28" fill="none" xmlns="http://www.w3.org/2000/svg">
<path fill-rule="evenodd" clip-rule="evenodd" d="M4.66797 25.0833C4.66797 24.7612 4.92914 24.5 5.2513 24.5H22.7513C23.0735 24.5 23.3346 24.7612 23.3346 25.0833C23.3346 25.4055 23.0735 25.6667 22.7513 25.6667H5.2513C4.92914 25.6667 4.66797 25.4055 4.66797 25.0833Z" fill="#A2B0BD"/>
<path fill-rule="evenodd" clip-rule="evenodd" d="M6.9987 12.8332V24.4998H9.91536V12.8332H6.9987ZM6.41536 11.6665C6.09319 11.6665 5.83203 11.9277 5.83203 12.2498V25.0832C5.83203 25.4053 6.09319 25.6665 6.41536 25.6665H10.4987C10.8209 25.6665 11.082 25.4053 11.082 25.0832V12.2498C11.082 11.9277 10.8209 11.6665 10.4987 11.6665H6.41536Z" fill="#A2B0BD"/>
<path fill-rule="evenodd" clip-rule="evenodd" d="M9.91797 2.3335L19.2513 5.8335V14.0002H18.0846V6.642L11.0846 4.017V24.5002H15.7513C15.7513 24.8223 16.0125 25.0835 16.3346 25.0835H19.2513V25.6668H9.91797V24.5002V2.3335Z" fill="#A2B0BD"/>
<path d="M11.668 7.5835H12.8346V8.75016H11.668V7.5835ZM14.0013 7.5835H15.168V8.75016H14.0013V7.5835ZM16.3346 7.5835H17.5013V8.75016H16.3346V7.5835ZM11.668 9.91683H12.8346V11.0835H11.668V9.91683ZM14.0013 9.91683H15.168V11.0835H14.0013V9.91683ZM16.3346 9.91683H17.5013V11.0835H16.3346V9.91683ZM11.668 12.2502H12.8346V13.4168H11.668V12.2502ZM14.0013 12.2502H15.168V13.4168H14.0013V12.2502ZM16.3346 12.2502H17.5013V13.4168H16.3346V12.2502ZM11.668 14.5835H12.8346V15.7502H11.668V14.5835ZM14.0013 14.5835H15.168V15.7502H14.0013V14.5835ZM11.668 16.9168H12.8346V18.0835H11.668V16.9168ZM14.0013 16.9168H15.168V18.0835H14.0013V16.9168ZM11.668 19.2502H12.8346V20.4168H11.668V19.2502ZM14.0013 19.2502H15.168V20.4168H14.0013V19.2502ZM11.668 21.5835H12.8346V22.7502H11.668V21.5835ZM14.0013 21.5835H15.168V22.7502H14.0013V21.5835Z" fill="#A2B0BD"/>
<path fill-rule="evenodd" clip-rule="evenodd" d="M16.9167 15.1667V24.5H21V15.1667H16.9167ZM16.3333 14C16.0112 14 15.75 14.2612 15.75 14.5833V25.0833C15.75 25.4055 16.0112 25.6667 16.3333 25.6667H21.5833C21.9055 25.6667 22.1667 25.4055 22.1667 25.0833V14.5833C22.1667 14.2612 21.9055 14 21.5833 14H16.3333Z" fill="#A2B0BD"/>
<path fill-rule="evenodd" clip-rule="evenodd" d="M19.832 17.5002H18.082V16.3335H19.832V17.5002ZM19.832 19.8335H18.082V18.6668H19.832V19.8335ZM19.832 22.1668H18.082V21.0002H19.832V22.1668ZM19.832 24.5002H18.082V23.3335H19.832V24.5002ZM8.7487 7.5835V12.8335H7.58203V7.5835H8.7487Z" fill="#A2B0BD"/>
</svg>
