<svg width="66" height="66" viewBox="0 0 66 66" fill="none" xmlns="http://www.w3.org/2000/svg">
<rect width="64" height="64" rx="32" fill="white"/>
<rect x="2" y="2" width="64" height="64" rx="32" fill="white"/>
<path d="M64 33.7248C64 50.1413 51.2222 64 34 64C16.7778 64 4 50.1413 4 33.7248C4 17.3082 17.4315 4 34 4C50.5685 4 64 17.3082 64 33.7248Z" fill="white"/>
<path d="M64 33.7248C64 50.1413 51.2222 64 34 64C16.7778 64 4 50.1413 4 33.7248C4 17.3082 17.4315 4 34 4C50.5685 4 64 17.3082 64 33.7248Z" fill="url(#paint0_linear_1_183)" fill-opacity="0.1"/>
<path fill-rule="evenodd" clip-rule="evenodd" d="M33.645 16.0978C33.264 16.3033 33.2541 16.3758 33.2541 18.9583C33.2541 20.9413 33.2707 21.3562 33.357 21.522C33.4678 21.735 33.7705 21.9242 34.0004 21.9242C34.2302 21.9242 34.5329 21.735 34.6437 21.522C34.73 21.3562 34.7466 20.9413 34.7466 18.9583C34.7466 16.3614 34.7377 16.298 34.3418 16.0946C34.0943 15.9675 33.8852 15.9684 33.645 16.0978ZM24.7948 18.4477C24.5533 18.5549 24.3664 18.856 24.3664 19.1377C24.3664 19.2453 24.5721 19.6807 24.8538 20.169C26.7913 23.5285 26.8939 23.6768 27.2816 23.6768C27.7324 23.6768 28.0313 23.3747 28.0288 22.9218C28.0275 22.6962 27.9162 22.4821 26.8443 20.6434C26.5525 20.1429 26.1833 19.5059 26.024 19.2279C25.8647 18.9498 25.6616 18.6545 25.5729 18.5717C25.3625 18.3754 25.0644 18.3279 24.7948 18.4477ZM42.7108 18.398C42.4215 18.4545 42.354 18.5584 40.398 21.9579C39.9472 22.7414 39.8883 22.9859 40.0674 23.33C40.1795 23.5455 40.4308 23.6768 40.7307 23.6768C41.0254 23.6768 41.3337 23.3311 41.8469 22.4252C42.0766 22.0199 42.5724 21.1574 42.9486 20.5086C43.6613 19.2798 43.717 19.1105 43.5281 18.7474C43.4349 18.5683 43.0593 18.3345 42.9072 18.3608C42.878 18.3658 42.7896 18.3825 42.7108 18.398ZM32.3042 24.9271C32.2483 24.9388 31.8208 24.9982 31.3544 25.059C26.2987 25.7185 20.8609 28.5311 16.2815 32.8552C15.0033 34.0622 14.8514 34.3108 15.1001 34.7886C15.2159 35.0111 16.7711 36.5222 17.6093 37.2266C22.044 40.9536 26.6426 43.1395 31.5919 43.873C32.8182 44.0547 35.3354 44.0389 36.6082 43.8416C38.3477 43.5719 39.4588 43.2962 40.9884 42.7546C44.8909 41.373 48.6011 39.0199 51.9321 35.8137C52.4115 35.3522 52.8472 34.8912 52.9003 34.789C53.1457 34.3178 52.9894 34.0462 51.8481 32.9603C48.2982 29.5828 44.2393 27.1215 40.0477 25.8047C37.9967 25.1604 36.1411 24.8863 33.9077 24.8979C33.0817 24.9022 32.3602 24.9153 32.3042 24.9271ZM35.8297 26.5442C36.7355 26.7622 37.4434 27.0419 38.1308 27.4537C39.5839 28.3243 40.5942 29.4187 41.3325 30.9225C41.9098 32.0985 42.1378 33.0988 42.1404 34.467C42.1462 37.5382 40.3831 40.3329 37.5622 41.7241C33.5632 43.6963 28.6635 42.0046 26.6753 37.9651C26.1053 36.807 25.859 35.7396 25.859 34.4283C25.859 33.097 26.0805 32.1415 26.6717 30.9231C27.2212 29.7904 27.8667 28.9673 28.8102 28.1959C29.8151 27.3744 30.7871 26.8949 32.1685 26.5394C33.2293 26.2663 34.6825 26.2683 35.8297 26.5442ZM27.0362 27.8055C25.9833 28.984 25.5006 29.7563 24.9551 31.1345C24.5349 32.1961 24.409 32.9531 24.4073 34.4283C24.4055 35.9571 24.5324 36.6728 25.023 37.8997C25.4647 39.0046 25.9718 39.8376 26.7483 40.7339C26.9716 40.9917 27.1262 41.2027 27.0918 41.2027C26.9601 41.2027 25.803 40.7079 24.8179 40.2302C23.8564 39.7641 22.4331 38.9511 21.6768 38.4362C21.4956 38.3128 21.1996 38.1115 21.0192 37.989C20.6201 37.7181 19.3358 36.7421 19.0017 36.4559C18.8683 36.3417 18.6009 36.1164 18.4073 35.9552C18.2138 35.7941 17.7605 35.383 17.4 35.0419C16.7445 34.4216 16.7445 34.4216 17.7229 33.5369C19.3774 32.0409 21.0872 30.7494 22.6024 29.8512C22.7703 29.7517 22.9535 29.6411 23.0095 29.6054C23.7002 29.1649 25.3367 28.3573 26.5035 27.8811C27.1525 27.6161 27.213 27.6076 27.0362 27.8055ZM41.1309 27.7298C41.4241 27.8263 43.106 28.5747 43.4647 28.7682C43.614 28.8487 44.0082 29.0607 44.3406 29.2392C46.181 30.2277 48.1616 31.6457 50.0457 33.3238C51.4177 34.5458 51.3577 34.3303 50.5404 35.1031C48.7516 36.7943 46.5529 38.4037 44.3364 39.6444C43.3009 40.224 41.1458 41.2027 40.905 41.2027C40.8611 41.2027 40.9327 41.0889 41.0641 40.9499C42.8083 39.1049 43.7204 36.6407 43.6153 34.0575C43.5224 31.7715 42.7166 29.8009 41.1347 27.991C40.9726 27.8056 40.8536 27.6538 40.8702 27.6538C40.8868 27.6538 41.0041 27.688 41.1309 27.7298ZM33.1362 30.8566C32.5646 30.98 31.9847 31.2994 31.4524 31.784C31.0946 32.1097 30.9528 32.3043 30.7102 32.8019C30.2218 33.804 30.1641 34.6327 30.5128 35.6347C30.7247 36.2433 31.0049 36.6675 31.4899 37.1136C32.2099 37.7759 33.0387 38.102 34.0017 38.102C34.9689 38.102 35.7597 37.7961 36.474 37.1458C37.2949 36.3984 37.6888 35.5308 37.6925 34.462C37.696 33.4331 37.3265 32.5553 36.586 31.8331C35.6448 30.9151 34.4421 30.5747 33.1362 30.8566Z" fill="url(#paint1_linear_1_183)"/>
<path fill-rule="evenodd" clip-rule="evenodd" d="M34.3621 53.898C34.758 53.6839 34.7683 53.6084 34.7683 50.9172C34.7683 48.8507 34.7509 48.4183 34.6614 48.2455C34.5462 48.0236 34.2318 47.8264 33.9931 47.8264C33.7543 47.8264 33.4399 48.0236 33.3248 48.2455C33.2352 48.4183 33.2179 48.8507 33.2179 50.9172C33.2179 53.6234 33.2272 53.6895 33.6384 53.9014C33.8955 54.0339 34.1127 54.0329 34.3621 53.898ZM43.555 51.4493C43.8059 51.3375 44 51.0237 44 50.7302C44 50.6181 43.7863 50.1644 43.4937 49.6554C41.4811 46.1545 41.3746 46 40.9719 46C40.5037 46 40.1932 46.3148 40.1958 46.7868C40.1972 47.0219 40.3127 47.245 41.4262 49.161C41.7293 49.6826 42.1127 50.3464 42.2782 50.6362C42.4437 50.926 42.6546 51.2337 42.7468 51.32C42.9653 51.5246 43.2749 51.5741 43.555 51.4493ZM24.9454 51.5011C25.2459 51.4422 25.3161 51.3339 27.3478 47.7913C27.8161 46.9748 27.8772 46.72 27.6912 46.3614C27.5747 46.1368 27.3137 46 27.0022 46C26.6961 46 26.3758 46.3603 25.8428 47.3042C25.6042 47.7266 25.0892 48.6254 24.6984 49.3015C23.9581 50.5821 23.9003 50.7586 24.0965 51.1369C24.1933 51.3236 24.5835 51.5672 24.7415 51.5398C24.7718 51.5346 24.8636 51.5171 24.9454 51.5011Z" fill="#FD7277"/>
<defs>
<linearGradient id="paint0_linear_1_183" x1="3.06024" y1="-4.75008" x2="68.5095" y2="-3.81656" gradientUnits="userSpaceOnUse">
<stop stop-color="#FF63AE"/>
<stop offset="1" stop-color="#FB823E"/>
<stop offset="1" stop-color="#FF8F51"/>
</linearGradient>
<linearGradient id="paint1_linear_1_183" x1="14.4048" y1="11.9166" x2="55.8489" y2="12.7189" gradientUnits="userSpaceOnUse">
<stop stop-color="#FF63AE"/>
<stop offset="1" stop-color="#FB823E"/>
<stop offset="1" stop-color="#FF8F51"/>
</linearGradient>
</defs>
</svg>
