<svg width="64" height="64" viewBox="0 0 64 64" fill="none" xmlns="http://www.w3.org/2000/svg">
<rect width="64" height="64" rx="32" fill="white"/>
<path d="M62 32.7248C62 49.1413 49.2222 63 32 63C14.7778 63 2 49.1413 2 32.7248C2 16.3082 15.4315 3 32 3C48.5685 3 62 16.3082 62 32.7248Z" fill="white"/>
<path d="M62 32.7248C62 49.1413 49.2222 63 32 63C14.7778 63 2 49.1413 2 32.7248C2 16.3082 15.4315 3 32 3C48.5685 3 62 16.3082 62 32.7248Z" fill="url(#paint0_linear_1_104)" fill-opacity="0.1"/>
<path fill-rule="evenodd" clip-rule="evenodd" d="M30.4457 15.0929C26.4822 15.5759 23.0285 17.7581 20.9026 21.1227C19.3103 23.643 18.6371 26.9605 19.1915 29.5546C19.9675 33.1853 22.9366 38.8386 27.8227 45.9892C28.9513 47.6409 29.3482 48.0997 29.9677 48.4691C30.6276 48.8624 31.1253 48.9946 31.9664 48.9999C32.84 49.0053 33.4522 48.8436 34.0838 48.4406C34.6978 48.0489 35.0443 47.6466 36.1122 46.0856C40.3971 39.8231 43.4054 34.3519 44.434 30.951C44.9321 29.3039 45.0656 28.3072 44.9724 26.9292C44.5168 20.1954 38.762 14.9445 31.8988 15.0004C31.4899 15.0038 30.836 15.0454 30.4457 15.0929ZM33.2478 16.3913C35.1192 16.6023 36.9139 17.2427 38.4322 18.2416C40.2 19.4046 41.518 20.881 42.4468 22.7388C43.155 24.1553 43.5125 25.4477 43.6226 26.99C43.6927 27.9713 43.6215 28.7252 43.3578 29.7949C42.5282 33.1597 39.3223 39.0883 34.7992 45.6224C33.892 46.933 33.5448 47.2903 32.9563 47.5196C32.4271 47.7256 31.5768 47.7271 31.0539 47.523C30.4159 47.2738 30.0885 46.9191 28.9148 45.2046C25.0238 39.521 22.1746 34.4182 21.0163 31.0591C20.4566 29.4358 20.2815 28.3294 20.3761 27.0153C20.7692 21.558 24.964 17.1614 30.4794 16.4258C31.3115 16.3149 32.4442 16.3008 33.2478 16.3913Z" fill="url(#paint1_linear_1_104)"/>
<g clip-path="url(#clip0_1_104)">
<path d="M28.5386 31.405V33.4751H28.0946V32.6174H27.1474V33.4751H26.7034V31.405H27.1474V32.2182H28.0946V31.405H28.5386Z" fill="#2A3845"/>
<path d="M30.129 32.5435V33.475H29.6998V33.3198C29.5888 33.4455 29.4112 33.512 29.241 33.512C28.908 33.512 28.6564 33.3124 28.6564 33.0167C28.6564 32.7061 28.945 32.4991 29.3076 32.4991C29.4334 32.4991 29.574 32.5287 29.7072 32.5805V32.5435C29.7072 32.3808 29.6036 32.233 29.3446 32.233C29.1966 32.233 29.0634 32.2847 28.9376 32.3439L28.7896 32.0482C29.0116 31.9373 29.2262 31.8781 29.4408 31.8781C29.8478 31.8855 30.129 32.1369 30.129 32.5435ZM29.6998 32.9871V32.8392C29.6036 32.8023 29.4852 32.7801 29.3668 32.7801C29.204 32.7801 29.0782 32.8762 29.0782 33.0019C29.0782 33.1276 29.1892 33.2089 29.3372 33.2089C29.5148 33.2089 29.6702 33.135 29.6998 32.9871Z" fill="#2A3845"/>
<path d="M31.9296 31.3677V33.4747H31.4856V33.2529C31.3598 33.4156 31.1822 33.5117 30.9602 33.5117C30.5458 33.5117 30.2424 33.1716 30.2424 32.6911C30.2424 32.2179 30.5458 31.8778 30.9602 31.8778C31.1822 31.8778 31.3598 31.9739 31.4856 32.1366V31.3677H31.9296ZM31.4856 32.6984C31.4856 32.4397 31.3228 32.2549 31.086 32.2549C30.8418 32.2549 30.6716 32.4397 30.6716 32.6984C30.6716 32.9572 30.8418 33.142 31.086 33.142C31.3228 33.142 31.4856 32.9572 31.4856 32.6984Z" fill="#2A3845"/>
<path d="M32.0236 33.2826L32.216 32.9794C32.3566 33.0756 32.5268 33.1569 32.7414 33.1569C32.8598 33.1569 32.9412 33.1051 32.9412 33.0386C32.9412 32.9425 32.8302 32.9129 32.6674 32.8685C32.3492 32.7872 32.0976 32.7059 32.0976 32.3954C32.0976 32.0997 32.3418 31.8853 32.7044 31.8853C32.9264 31.8853 33.1484 31.9666 33.3186 32.0775L33.141 32.388C33.0004 32.2993 32.8376 32.2475 32.7044 32.2475C32.5934 32.2475 32.5194 32.2845 32.5194 32.3436C32.5194 32.425 32.586 32.4545 32.7932 32.5063C33.0596 32.5728 33.363 32.6689 33.363 33.009C33.363 33.3195 33.1114 33.5117 32.7266 33.5117C32.475 33.5117 32.2086 33.4304 32.0236 33.2826Z" fill="#2A3845"/>
<path d="M33.4807 32.5805V31.405H33.9247V32.5658C33.9247 32.8837 34.1319 33.1128 34.4205 33.1128C34.7091 33.1128 34.9089 32.8837 34.9089 32.5658V31.405H35.3529V32.5805C35.3529 33.1276 34.9607 33.5121 34.4131 33.5121C33.8655 33.5121 33.4807 33.1276 33.4807 32.5805Z" fill="#2A3845"/>
<path d="M37.1835 32.6985C37.1835 33.1791 36.8801 33.5191 36.4657 33.5191C36.2511 33.5191 36.0661 33.423 35.9403 33.2604V33.9997H35.4963V31.9222H35.9403V32.1366C36.0661 31.974 36.2437 31.8853 36.4657 31.8853C36.8875 31.8853 37.1835 32.2179 37.1835 32.6985ZM36.7543 32.6985C36.7543 32.4397 36.5841 32.2549 36.3399 32.2549C36.1253 32.2549 35.9699 32.4102 35.9477 32.6394V32.7576C35.9699 32.9868 36.1253 33.1421 36.3399 33.1421C36.5841 33.1421 36.7543 32.9573 36.7543 32.6985Z" fill="#2A3845"/>
<path d="M26.7034 26.9687V27.2866L31.9501 30.4287L33.9111 29.2458V28.9353L31.9501 30.1182L26.7034 26.9687Z" fill="#CC3E4B"/>
<path d="M35.2275 28.1516L33.259 26.9761V26.9687L32.9926 27.1313L31.9492 27.7598L32.2082 27.915L33.259 27.2866L35.2201 28.4621L37.1885 27.2866V26.9687L35.2275 28.1516Z" fill="#CC3E4B"/>
<path d="M29.9807 25.0099V25.3204L31.6827 26.3407L31.9491 26.1854L29.9807 25.0099Z" fill="#CC3E4B"/>
<path d="M31.95 26.1852L29.9816 25.0096L31.95 26.1852L31.6836 26.3404L30.6402 26.9688L28.6717 25.7933L26.7033 26.9688L31.95 30.1183L33.911 28.9354L32.209 27.9152L31.95 27.7599L32.9934 27.1315L33.2598 26.9688V26.9762L35.2282 28.1517L37.1893 26.9688L33.9184 25.0096L31.95 26.1852Z" fill="#F46872"/>
<path d="M31.5665 25.9484L31.9587 26.185L32.0919 26.1111L31.6997 25.8745L31.5665 25.9484Z" fill="#2A3845"/>
<path d="M30.9024 25.5567L31.2946 25.7933L31.4278 25.712L31.0356 25.4828L30.9024 25.5567Z" fill="#2A3845"/>
<path d="M30.2384 25.1646L30.638 25.4012L30.7638 25.3199L30.3716 25.0907L30.2384 25.1646Z" fill="#2A3845"/>
<path d="M29.582 24.7731L29.9742 25.0097L30.1074 24.9284L29.7152 24.6918L29.582 24.7731Z" fill="#2A3845"/>
<path d="M28.9376 24.3813L29.3298 24.6178L29.463 24.5365L29.0708 24.2999L28.9376 24.3813Z" fill="#2A3845"/>
<path d="M28.2696 23.9896L28.6618 24.2188L28.795 24.1449L28.4028 23.9083L28.2696 23.9896Z" fill="#2A3845"/>
<path d="M27.625 23.59L28.0172 23.8266L28.1504 23.7527L27.7582 23.5161L27.625 23.59Z" fill="#2A3845"/>
<path d="M26.9688 23.1981L27.361 23.4347L27.4868 23.3533L27.0946 23.1241L26.9688 23.1981Z" fill="#2A3845"/>
<path d="M33.129 24.6915L33.5212 24.9281L33.6544 24.8541L33.2622 24.6176L33.129 24.6915Z" fill="#2A3845"/>
<path d="M32.9947 24.4551L32.6099 24.226L32.4767 24.2999L32.8689 24.5365L32.9947 24.4551Z" fill="#2A3845"/>
<path d="M32.3505 24.0632L31.9583 23.8266L32.3505 23.59L32.2173 23.5161L31.6993 23.8266L32.2173 24.1445L32.3505 24.0632Z" fill="#2A3845"/>
<path d="M31.2817 23.4349L31.1485 23.5163L31.5481 23.7528L31.6739 23.6715L31.2817 23.4349Z" fill="#2A3845"/>
<path d="M30.6491 23.0432L30.5159 23.1245L30.9081 23.3611L31.0413 23.2798L30.6491 23.0432Z" fill="#2A3845"/>
<path d="M29.9849 22.6511L29.8517 22.7251L30.2439 22.9616L30.3771 22.8877L29.9849 22.6511Z" fill="#2A3845"/>
<path d="M29.3325 22.2594L29.1993 22.3333L29.5915 22.5699L29.7247 22.496L29.3325 22.2594Z" fill="#2A3845"/>
<path d="M28.6684 21.8677L28.5352 21.9416L28.9275 22.1782L29.0607 22.0969L28.6684 21.8677Z" fill="#2A3845"/>
<path d="M27.0955 22.8066L26.7033 23.0432L26.8365 23.1245L27.2287 22.8879L27.0955 22.8066Z" fill="#2A3845"/>
<path d="M27.8771 22.4961L27.7439 22.4148L27.3517 22.6514L27.4775 22.7253L27.8771 22.4961Z" fill="#2A3845"/>
<path d="M28.5411 22.1042L28.4153 22.0228L28.0157 22.2594L28.1489 22.3333L28.5411 22.1042Z" fill="#2A3845"/>
<path d="M32.0821 25.949L32.2079 26.0303L32.6001 25.7937L32.4743 25.7124L32.0821 25.949Z" fill="#2A3845"/>
<path d="M32.7423 25.5566L32.8755 25.638L33.2677 25.4014L33.1345 25.3201L32.7423 25.5566Z" fill="#2A3845"/>
<path d="M33.3945 25.1653L33.5203 25.2466L33.92 25.01L33.7868 24.9287L33.3945 25.1653Z" fill="#2A3845"/>
<path d="M34.8243 23.9896L35.2239 24.2262L35.3497 24.1449L34.9575 23.9083L34.8243 23.9896Z" fill="#2A3845"/>
<path d="M34.1837 23.59L34.5759 23.8266L34.7091 23.7527L34.3169 23.5161L34.1837 23.59Z" fill="#2A3845"/>
<path d="M33.5235 23.1981L33.9157 23.4347L34.0489 23.3607L33.6567 23.1241L33.5235 23.1981Z" fill="#2A3845"/>
<path d="M33.2517 23.0428L33.3849 22.9615L32.9927 22.7323L32.8595 22.8062L33.2517 23.0428Z" fill="#2A3845"/>
<path d="M32.6071 22.6515L32.7403 22.5701L32.3481 22.3409L32.2149 22.4149L32.6071 22.6515Z" fill="#2A3845"/>
<path d="M31.0356 21.5498L30.9024 21.6311L31.2946 21.8677L31.4278 21.7864L31.0356 21.5498Z" fill="#2A3845"/>
<path d="M30.2384 21.239L30.6306 21.4682L30.7638 21.3943L30.3716 21.1577L30.2384 21.239Z" fill="#2A3845"/>
<path d="M36.9317 22.8877L36.5395 22.6511L36.4063 22.7324L36.7985 22.9616L36.9317 22.8877Z" fill="#2A3845"/>
<path d="M36.2755 22.496L35.8833 22.2594L35.7501 22.3333L36.1497 22.5699L36.2755 22.496Z" fill="#2A3845"/>
<path d="M35.6153 22.1043L35.2231 21.8677L35.0899 21.9416L35.4821 22.1782L35.6153 22.1043Z" fill="#2A3845"/>
<path d="M34.5708 21.4758L34.4376 21.5498L34.8298 21.7863L34.963 21.705L34.5708 21.4758Z" fill="#2A3845"/>
<path d="M33.9263 21.0765L33.7931 21.1579L34.1853 21.3944L34.3185 21.3131L33.9263 21.0765Z" fill="#2A3845"/>
<path d="M33.6544 20.921L33.2622 20.6844L33.129 20.7658L33.5212 21.0024L33.6544 20.921Z" fill="#2A3845"/>
<path d="M32.9942 20.5296L32.602 20.2931L32.4688 20.3744L32.8684 20.611L32.9942 20.5296Z" fill="#2A3845"/>
<path d="M32.338 20.1376L31.9458 19.901L31.8126 19.9749L32.2048 20.2115L32.338 20.1376Z" fill="#2A3845"/>
<path d="M30.506 20.9212L30.3728 20.8473L29.9806 21.0765L30.1138 21.1578L30.506 20.9212Z" fill="#2A3845"/>
<path d="M31.1583 20.5296L31.0251 20.4482L30.6329 20.6848L30.7587 20.7661L31.1583 20.5296Z" fill="#2A3845"/>
<path d="M31.8185 20.1375L31.6853 20.0562L31.2931 20.2927L31.4263 20.3741L31.8185 20.1375Z" fill="#2A3845"/>
<path d="M35.3597 23.9894L35.4929 24.0634L35.8851 23.8268L35.7519 23.7529L35.3597 23.9894Z" fill="#2A3845"/>
<path d="M36.0118 23.5903L36.1376 23.6716L36.5372 23.435L36.404 23.3611L36.0118 23.5903Z" fill="#2A3845"/>
<path d="M37.0599 22.9618L36.6602 23.1984L36.7934 23.2797L37.1857 23.0431L37.0599 22.9618Z" fill="#2A3845"/>
<path d="M31.4278 22.7324L31.2946 22.6511L30.9024 22.8877L31.0356 22.9616L31.4278 22.7324Z" fill="#2A3845"/>
<path d="M31.6923 22.5701L32.2177 22.2596L32.0845 22.1782L31.6923 21.9417L31.5665 22.023L31.9587 22.2596L31.5665 22.4961L31.6923 22.5701Z" fill="#2A3845"/>
<path d="M32.8689 23.1241L32.4767 23.3607L32.6025 23.4347L32.9947 23.1981L32.8689 23.1241Z" fill="#2A3845"/>
</g>
<defs>
<linearGradient id="paint0_linear_1_104" x1="1.06024" y1="-5.75008" x2="66.5095" y2="-4.81656" gradientUnits="userSpaceOnUse">
<stop stop-color="#FF63AE"/>
<stop offset="1" stop-color="#FB823E"/>
<stop offset="1" stop-color="#FF8F51"/>
</linearGradient>
<linearGradient id="paint1_linear_1_104" x1="18.5928" y1="10.0416" x2="46.9565" y2="10.351" gradientUnits="userSpaceOnUse">
<stop stop-color="#FF63AE"/>
<stop offset="1" stop-color="#FB823E"/>
<stop offset="1" stop-color="#FF8F51"/>
</linearGradient>
<clipPath id="clip0_1_104">
<rect width="10.486" height="14.0988" fill="white" transform="translate(26.7109 19.9012)"/>
</clipPath>
</defs>
</svg>
