<svg width="185" height="50" viewBox="0 0 185 50" fill="none" xmlns="http://www.w3.org/2000/svg">
<g clipPath="url(#clip0_5_7903)">
<path d="M81.1242 12.5933V37.5H75.8092V27.2388H64.4332V37.5H59.1182V12.5933H64.4332V22.388H75.8092V12.5933H81.1242Z" fill="#2A3845"/>
<path d="M100.333 26.2128V37.4068H95.2044V35.5412C93.899 37.0337 91.7543 37.8733 89.7029 37.8733C85.6933 37.8733 82.6162 35.4479 82.6162 31.9031C82.6162 28.1718 86.0663 25.6531 90.4489 25.6531C91.9408 25.6531 93.6192 25.933 95.2044 26.586V26.2128C95.2044 24.2539 93.9922 22.4815 90.9151 22.4815C89.1434 22.4815 87.5582 23.0412 86.0663 23.7874L84.2946 20.2427C86.9055 18.9367 89.5164 18.1904 92.1273 18.1904C96.9761 18.2837 100.333 21.3621 100.333 26.2128ZM95.2044 31.53V29.8509C93.9922 29.3845 92.5935 29.1979 91.1948 29.1979C89.2367 29.1979 87.7447 30.3173 87.7447 31.8098C87.7447 33.3024 89.0502 34.2352 90.9151 34.2352C92.8733 34.2352 94.8314 33.3024 95.2044 31.53Z" fill="#2A3845"/>
<path d="M121.873 12.127V37.5001H116.558V34.7949C115.066 36.7538 112.921 37.8732 110.217 37.8732C105.182 37.8732 101.638 33.7687 101.638 28.0784C101.638 22.3881 105.275 18.2837 110.217 18.2837C112.828 18.2837 115.066 19.4031 116.558 21.362V12.127H121.873ZM116.558 28.0784C116.558 25.0001 114.599 22.7613 111.802 22.7613C108.911 22.7613 106.767 25.0001 106.767 28.0784C106.767 31.2501 108.818 33.4889 111.802 33.4889C114.599 33.3956 116.558 31.2501 116.558 28.0784Z" fill="#2A3845"/>
<path d="M122.898 35.0747L125.136 31.4367C126.815 32.6493 128.866 33.5822 131.384 33.5822C132.782 33.5822 133.808 33.0225 133.808 32.1829C133.808 31.0635 132.41 30.6904 130.545 30.1307C126.722 29.1979 123.738 28.1717 123.738 24.4404C123.738 20.8956 126.628 18.377 131.011 18.377C133.715 18.377 136.326 19.3098 138.377 20.709L136.233 24.4404C134.554 23.4143 132.596 22.7613 131.011 22.7613C129.705 22.7613 128.773 23.2277 128.773 23.8807C128.773 24.9068 129.519 25.1867 132.037 25.8396C135.3 26.6792 138.843 27.7986 138.843 31.8098C138.843 35.5411 135.86 37.8732 131.197 37.8732C128.4 37.8732 125.136 36.8471 122.898 35.0747Z" fill="#2A3845"/>
<path d="M140.522 26.6791V12.5933H145.837V26.4925C145.837 30.3171 148.261 33.0224 151.805 33.0224C155.255 33.0224 157.679 30.3171 157.679 26.4925V12.5933H163.087V26.7724C163.087 33.3022 158.425 37.9664 151.805 37.9664C145.091 37.8731 140.522 33.2089 140.522 26.6791Z" fill="#2A3845"/>
<path d="M185 28.0785C185 33.862 181.363 37.8732 176.421 37.8732C173.81 37.8732 171.666 36.7538 170.174 34.7949V43.6568H164.859V18.7501H170.174V21.362C171.666 19.4031 173.81 18.2837 176.421 18.2837C181.363 18.2837 185 22.3882 185 28.0785ZM179.871 28.0785C179.871 25.0001 177.82 22.7613 174.836 22.7613C172.225 22.7613 170.36 24.627 170.081 27.3322V28.8247C170.36 31.6232 172.225 33.4889 174.836 33.4889C177.82 33.3956 179.871 31.2501 179.871 28.0785Z" fill="#2A3845"/>
<path d="M0 33.582V35.0746L24.8967 49.9999L34.2213 44.4029V42.9104L24.8967 48.5074L0 33.582Z" fill="#CC3E4B"/>
<path d="M40.4686 39.179L31.144 33.582L29.8385 34.3283L24.8965 37.3134L26.1087 38.0596L31.144 35.0746L40.4686 40.6716L49.7932 35.0746V33.582L40.4686 39.179Z" fill="#CC3E4B"/>
<path d="M15.5723 24.2539V25.7464L23.6847 30.5972L24.8969 29.8509L15.5723 24.2539Z" fill="#CC3E4B"/>
<path d="M24.8967 29.8509L15.5721 24.2539L24.8967 29.8509L23.6845 30.5972L18.6492 33.5823L9.3246 27.9852L0 33.5823L24.8967 48.5076L34.2213 42.9106L26.1089 38.0599L24.8967 37.3136L29.8387 34.3285L31.1442 33.5823L40.4688 39.1793L49.7933 33.5823L34.2213 24.2539L24.8967 29.8509Z" fill="#F46872"/>
<path d="M23.0317 28.7315L24.8967 29.8509L25.5494 29.4778L23.6845 28.3584L23.0317 28.7315Z" fill="#2A3845"/>
<path d="M19.9546 26.8658L21.8195 27.9852L22.379 27.6121L20.5141 26.4927L19.9546 26.8658Z" fill="#2A3845"/>
<path d="M16.7842 25.0001L18.6491 26.1195L19.3018 25.7464L17.4369 24.627L16.7842 25.0001Z" fill="#2A3845"/>
<path d="M13.707 23.1344L15.572 24.2538L16.2247 23.8806L14.3598 22.7612L13.707 23.1344Z" fill="#2A3845"/>
<path d="M10.5366 21.2686L12.4015 22.388L13.0543 22.0149L11.1893 20.8955L10.5366 21.2686Z" fill="#2A3845"/>
<path d="M7.45947 19.4029L9.32439 20.5223L9.97711 20.1492L8.11219 19.0298L7.45947 19.4029Z" fill="#2A3845"/>
<path d="M4.38232 17.5372L6.24724 18.6566L6.80672 18.2835L5.03505 17.1641L4.38232 17.5372Z" fill="#2A3845"/>
<path d="M1.2124 15.6715L3.07732 16.7909L3.73004 16.4177L1.86512 15.2983L1.2124 15.6715Z" fill="#2A3845"/>
<path d="M30.4912 22.7613L32.3561 23.8807L33.0089 23.5076L31.1439 22.3882L30.4912 22.7613Z" fill="#2A3845"/>
<path d="M29.8389 21.6419L27.974 20.5225L27.4146 20.8956L29.2795 22.015L29.8389 21.6419Z" fill="#2A3845"/>
<path d="M26.7617 19.776L24.8968 18.6566L26.7617 17.5372L26.109 17.1641L23.6846 18.6566L26.109 20.1491L26.7617 19.776Z" fill="#2A3845"/>
<path d="M21.8197 16.791L21.167 17.1641L23.0319 18.2836L23.6846 17.9104L21.8197 16.791Z" fill="#2A3845"/>
<path d="M18.6493 14.9253L18.0898 15.2984L19.9548 16.4178L20.5142 16.0447L18.6493 14.9253Z" fill="#2A3845"/>
<path d="M15.5722 13.0596L14.9194 13.4327L16.7844 14.5521L17.4371 14.179L15.5722 13.0596Z" fill="#2A3845"/>
<path d="M12.495 11.1938L11.8423 11.567L13.7072 12.6864L14.2667 12.3133L12.495 11.1938Z" fill="#2A3845"/>
<path d="M9.3246 9.32812L8.67188 9.70126L10.5368 10.8207L11.1895 10.4475L9.3246 9.32812Z" fill="#2A3845"/>
<path d="M1.86492 13.8062L0 14.9256L0.652722 15.2987L2.51764 14.1793L1.86492 13.8062Z" fill="#2A3845"/>
<path d="M5.59479 12.3136L4.94207 11.9404L3.07715 13.0598L3.72987 13.433L5.59479 12.3136Z" fill="#2A3845"/>
<path d="M8.7652 10.4478L8.11248 10.0747L6.24756 11.1941L6.80703 11.5672L8.7652 10.4478Z" fill="#2A3845"/>
<path d="M25.5493 28.7312L26.1088 29.1044L27.9737 27.985L27.4142 27.6118L25.5493 28.7312Z" fill="#2A3845"/>
<path d="M28.6265 26.8655L29.2792 27.2386L31.1441 26.1192L30.4914 25.7461L28.6265 26.8655Z" fill="#2A3845"/>
<path d="M31.7036 24.9998L32.3563 25.3729L34.2213 24.2535L33.5685 23.8804L31.7036 24.9998Z" fill="#2A3845"/>
<path d="M38.604 19.4029L40.4689 20.5223L41.0284 20.1492L39.1635 19.0298L38.604 19.4029Z" fill="#2A3845"/>
<path d="M35.4336 17.5372L37.2985 18.6566L37.9512 18.2835L36.0863 17.1641L35.4336 17.5372Z" fill="#2A3845"/>
<path d="M32.3564 15.6715L34.2214 16.7909L34.8741 16.4177L33.0092 15.2983L32.3564 15.6715Z" fill="#2A3845"/>
<path d="M31.1442 14.9252L31.7037 14.552L29.8388 13.4326L29.2793 13.8058L31.1442 14.9252Z" fill="#2A3845"/>
<path d="M27.9738 13.0599L28.6265 12.6868L26.7616 11.5674L26.1089 11.9405L27.9738 13.0599Z" fill="#2A3845"/>
<path d="M20.5141 7.83594L19.9546 8.20907L21.8195 9.32847L22.379 8.95534L20.5141 7.83594Z" fill="#2A3845"/>
<path d="M16.7842 6.34335L18.6491 7.46275L19.3018 7.08962L17.4369 5.97021L16.7842 6.34335Z" fill="#2A3845"/>
<path d="M48.4879 14.179L46.623 13.0596L46.0635 13.4327L47.9284 14.5521L48.4879 14.179Z" fill="#2A3845"/>
<path d="M45.4107 12.3133L43.5458 11.1938L42.8931 11.567L44.758 12.6864L45.4107 12.3133Z" fill="#2A3845"/>
<path d="M42.3336 10.4475L40.4686 9.32812L39.8159 9.70126L41.6808 10.8207L42.3336 10.4475Z" fill="#2A3845"/>
<path d="M37.2982 7.46289L36.7388 7.83602L38.6037 8.95543L39.1632 8.58229L37.2982 7.46289Z" fill="#2A3845"/>
<path d="M34.2211 5.59717L33.5684 5.9703L35.4333 7.08971L36.086 6.71657L34.2211 5.59717Z" fill="#2A3845"/>
<path d="M33.0089 4.85085L31.1439 3.73145L30.4912 4.10458L32.3561 5.22398L33.0089 4.85085Z" fill="#2A3845"/>
<path d="M29.8389 2.98513L27.974 1.86572L27.4146 2.23886L29.2795 3.35826L29.8389 2.98513Z" fill="#2A3845"/>
<path d="M26.7618 1.1194L24.8969 0L24.2441 0.373134L26.1091 1.49254L26.7618 1.1194Z" fill="#2A3845"/>
<path d="M18.0899 4.85067L17.4372 4.47754L15.5723 5.59694L16.1317 5.97008L18.0899 4.85067Z" fill="#2A3845"/>
<path d="M21.1671 2.98495L20.5143 2.61182L18.6494 3.73122L19.3021 4.10435L21.1671 2.98495Z" fill="#2A3845"/>
<path d="M24.2437 1.11923L23.6843 0.746094L21.8193 1.8655L22.3788 2.23863L24.2437 1.11923Z" fill="#2A3845"/>
<path d="M41.0283 19.4031L41.681 19.7762L43.546 18.6568L42.8932 18.2837L41.0283 19.4031Z" fill="#2A3845"/>
<path d="M44.1987 17.5374L44.7582 17.9105L46.6231 16.7911L46.0636 16.418L44.1987 17.5374Z" fill="#2A3845"/>
<path d="M49.1408 14.5522L47.2759 15.6716L47.9286 16.0448L49.7935 14.9254L49.1408 14.5522Z" fill="#2A3845"/>
<path d="M22.379 13.4327L21.8195 13.0596L19.9546 14.179L20.5141 14.5521L22.379 13.4327Z" fill="#2A3845"/>
<path d="M23.6845 12.6867L26.1089 11.1942L25.5494 10.8211L23.6845 9.70166L23.0317 10.0748L24.8967 11.1942L23.0317 12.3136L23.6845 12.6867Z" fill="#2A3845"/>
<path d="M29.2795 15.2983L27.4146 16.4177L27.974 16.7909L29.8389 15.6715L29.2795 15.2983Z" fill="#2A3845"/>
</g>
<defs>
<clipPath id="clip0_5_7903">
<rect width="185" height="50" fill="white"/>
</clipPath>
</defs>
</svg>
